<?xml version="1.0" standalone="no"?><!DOCTYPE svg PUBLIC "-//W3C//DTD SVG 1.1//EN" "http://www.w3.org/Graphics/SVG/1.1/DTD/svg11.dtd"><svg t="1677766737081" class="icon" viewBox="0 0 1024 1024" version="1.1" xmlns="http://www.w3.org/2000/svg" p-id="2783" xmlns:xlink="http://www.w3.org/1999/xlink" width="200" height="200"><path d="M512 1024C794.768991 1024 1024 794.768991 1024 512 1024 229.231009 794.768991 0 512 0 229.231009 0 0 229.231009 0 512 0 794.768991 229.231009 1024 512 1024z m74.255405-275.109834c-6.901579-5.618407-11.338308-14.363186-11.338308-24.186336 0-16.95309 13.212319-30.696439 29.509324-30.696439 7.45617 0 14.265317 2.876262 19.459625 7.619285l0.173989-0.195738 57.539738 59.845097 115.608694-119.26247 0.117806 0.12143c5.373735-5.864892 12.958584-9.520481 21.362633-9.520482 16.297005 0 29.509324 13.743349 29.509324 30.696439 0 9.873897-4.482039 18.660361-11.445239 24.275144-0.875384 0.922506-1.594903 1.669211-2.160368 2.241925-43.669522 44.260361-87.335419 88.520722-131.017628 132.768397-14.589735 14.78366-29.971483 14.807221-44.557593 0.050747a77363.067696 77363.067696 0 0 1-72.761997-73.756999z m137.774216-139.34737a31.1296 31.1296 0 0 1 6.131314 18.595116c0 17.308319-14.073204 31.336212-31.434082 31.336212a31.377897 31.377897 0 0 1-21.54931-8.521855l-0.018124 0.018124-0.201175-0.226549a31.557324 31.557324 0 0 1-2.787455-3.043002c-41.699455-44.686273-101.202011-72.640566-167.252729-72.640566-125.700078 0-227.681416 101.236446-228.371936 226.381933h-0.010874c0.003625 0.213862 0.00725 0.425912 0.007249 0.639773 0 17.306506-14.073204 31.336212-31.434081 31.336213S215.674336 819.388488 215.674336 802.081982c0-0.213862 0.001812-0.425912 0.00725-0.639773 0.520156-121.07486 75.386336-224.652913 181.441926-267.713473-54.239377-35.243724-89.071688-95.748531-89.071689-164.619327C308.051823 260.516474 395.129883 172.176991 507.010492 172.176991c112.168779 0 198.960481 88.337671 198.960481 196.93423 0 68.943292-34.908432 129.506096-88.975631 164.731696 41.336977 16.835285 77.925494 42.868446 107.206456 75.547639l-0.172177 0.15224zM507.559646 498.950796c75.513204 0 136.641473-59.392 136.641473-132.817331 0-73.173409-61.128269-132.565409-136.639661-132.565408-75.509579 0-136.641473 59.392-136.641472 132.565408 0 73.427143 61.131894 132.817331 136.641472 132.817331z" fill="#ED6B75" p-id="2784"></path></svg>